<svg width="130" height="130" viewBox="0 0 130 130" fill="none" xmlns="http://www.w3.org/2000/svg">
<g clip-path="url(#clip0_147_4765)">
<path d="M115.556 0H14.4444C6.5 0 0 6.5 0 14.4444V115.556C0 123.5 6.5 130 14.4444 130H115.556C123.5 130 130 123.5 130 115.556V14.4444C130 6.5 123.5 0 115.556 0ZM65 21.6667C78.9389 21.6667 90.2778 33.0056 90.2778 46.9444C90.2778 60.8833 78.9389 72.2222 65 72.2222C51.0611 72.2222 39.7222 60.8833 39.7222 46.9444C39.7222 33.0056 51.0611 21.6667 65 21.6667ZM115.556 115.556H14.4444V113.894C14.4444 109.417 16.4667 105.228 19.9333 102.483C32.2833 92.5889 47.9556 86.6667 65 86.6667C82.0444 86.6667 97.7167 92.5889 110.067 102.483C113.533 105.228 115.556 109.489 115.556 113.894V115.556Z" fill="#D8D8D8"/>
</g>
<defs>
<clipPath id="clip0_147_4765">
<rect width="130" height="130" fill="white"/>
</clipPath>
</defs>
</svg>
