<svg role="img" viewBox="0 0 24 24" xmlns="http://www.w3.org/2000/svg" id="Velog--Streamline-Simple-Icons" height="24" width="24">
  <desc>
    Velog Streamline Icon: https://streamlinehq.com
  </desc>
  <title>Velog</title>
  <path d="M3 0C1.338 0 0 1.338 0 3v18c0 1.662 1.338 3 3 3h18c1.662 0 3 -1.338 3 -3V3c0 -1.662 -1.338 -3 -3 -3H3Zm6.883 6.25c0.63 0 1.005 0.3 1.125 0.9l1.463 8.303c0.465 -0.615 0.846 -1.133 1.146 -1.553 0.465 -0.66 0.893 -1.418 1.283 -2.273 0.405 -0.855 0.608 -1.62 0.608 -2.295 0 -0.405 -0.113 -0.727 -0.338 -0.967 -0.21 -0.255 -0.608 -0.577 -1.193 -0.967 0.6 -0.765 1.35 -1.148 2.25 -1.148 0.48 0 0.878 0.143 1.193 0.428 0.33 0.285 0.494 0.704 0.494 1.26 0 0.93 -0.39 2.093 -1.17 3.488 -0.765 1.38 -2.241 3.457 -4.431 6.232l-2.227 0.156 -1.711 -9.628h-2.25V7.24c0.6 -0.195 1.305 -0.406 2.115 -0.63 0.81 -0.24 1.358 -0.36 1.643 -0.36Z" fill="#000000" stroke-width="1"></path>
</svg>